<?xml version="1.0" standalone="no"?>
<!DOCTYPE svg PUBLIC "-//W3C//DTD SVG 20010904//EN"
 "http://www.w3.org/TR/2001/REC-SVG-20010904/DTD/svg10.dtd">
<svg version="1.0" xmlns="http://www.w3.org/2000/svg"
 width="2560.000000pt" height="2560.000000pt" viewBox="0 0 2560.000000 2560.000000"
 preserveAspectRatio="xMidYMid meet">
<metadata>
Created by potrace 1.11, written by Peter Selinger 2001-2013
</metadata>
<g transform="translate(0.000000,2560.000000) scale(0.100000,-0.100000)"
fill="#000000" stroke="none">
<path d="M12538 24855 c-2 -1 -88 -6 -193 -9 -104 -4 -206 -9 -225 -11 -19 -1
-83 -6 -142 -10 -58 -3 -119 -8 -135 -10 -15 -2 -66 -6 -113 -10 -47 -3 -96
-8 -110 -10 -14 -2 -54 -7 -90 -10 -36 -4 -78 -9 -95 -11 -16 -2 -52 -7 -80
-10 -127 -14 -179 -21 -328 -44 -73 -12 -143 -23 -157 -25 -14 -3 -90 -16
-170 -31 -80 -14 -197 -36 -260 -49 -63 -13 -128 -27 -145 -29 -16 -3 -45 -10
-62 -15 -18 -5 -33 -8 -33 -6 0 3 -11 0 -26 -5 -14 -6 -39 -12 -57 -15 -113
-20 -680 -174 -907 -246 -52 -17 -102 -32 -110 -34 -14 -4 -349 -120 -475
-165 -76 -28 -428 -166 -469 -185 -17 -7 -76 -33 -131 -56 -55 -23 -133 -57
-173 -75 -41 -19 -75 -34 -77 -34 -13 0 -502 -241 -655 -322 -108 -58 -240
-130 -275 -150 -16 -9 -42 -23 -57 -30 -16 -7 -28 -16 -28 -20 0 -4 -5 -8 -10
-8 -6 0 -106 -58 -223 -128 -117 -70 -223 -135 -236 -142 -14 -8 -30 -18 -35
-22 -6 -4 -121 -81 -256 -171 -321 -213 -636 -445 -961 -707 -49 -40 -308
-259 -325 -275 -6 -5 -44 -39 -84 -75 -216 -192 -300 -271 -549 -521 -240
-240 -377 -386 -561 -599 -36 -41 -70 -79 -76 -85 -6 -5 -33 -37 -60 -70 -27
-33 -57 -69 -68 -80 -10 -11 -30 -36 -45 -55 -14 -19 -48 -62 -76 -95 -27 -33
-62 -76 -77 -95 -15 -19 -61 -79 -102 -133 -42 -53 -93 -121 -113 -150 -21
-28 -40 -54 -43 -57 -14 -12 -217 -300 -327 -465 -184 -275 -239 -364 -405
-645 -171 -291 -246 -429 -413 -765 -115 -232 -140 -284 -208 -435 -13 -30
-33 -75 -45 -100 -32 -72 -147 -348 -177 -425 -14 -38 -31 -79 -36 -90 -55
-121 -251 -700 -335 -990 -76 -261 -180 -666 -208 -805 -2 -14 -12 -59 -21
-100 -9 -41 -19 -86 -21 -100 -3 -14 -14 -68 -24 -120 -10 -52 -31 -165 -45
-250 -14 -85 -28 -166 -30 -180 -3 -14 -7 -45 -10 -70 -3 -25 -8 -54 -10 -65
-2 -11 -7 -42 -10 -70 -3 -27 -8 -59 -10 -70 -2 -11 -7 -47 -10 -80 -4 -33 -8
-71 -10 -85 -7 -45 -35 -326 -50 -510 -36 -427 -42 -1369 -10 -1700 2 -19 6
-80 9 -135 4 -55 9 -113 11 -130 2 -16 6 -62 10 -101 3 -39 7 -88 10 -110 2
-21 9 -82 15 -134 25 -217 36 -298 46 -355 2 -11 6 -40 9 -64 3 -25 7 -54 10
-65 2 -12 7 -38 10 -58 12 -86 17 -116 30 -183 8 -38 17 -90 20 -115 4 -25 13
-72 20 -105 8 -33 16 -76 20 -95 3 -19 7 -39 9 -45 1 -5 6 -28 10 -50 4 -22
16 -76 26 -120 11 -44 22 -95 25 -114 3 -19 8 -37 10 -41 2 -3 6 -18 9 -33 11
-60 72 -296 128 -492 243 -855 541 -1604 951 -2390 79 -153 219 -405 277 -500
20 -33 40 -67 44 -75 10 -21 25 -47 72 -121 22 -35 80 -127 129 -204 129 -206
412 -619 489 -716 22 -26 32 -40 112 -149 27 -36 51 -67 54 -70 3 -3 50 -61
104 -130 90 -113 216 -265 272 -330 12 -14 43 -50 70 -80 68 -79 170 -193 240
-269 34 -36 76 -82 94 -101 255 -279 739 -732 1100 -1030 23 -19 62 -52 87
-73 84 -71 391 -306 538 -413 170 -123 221 -158 440 -304 107 -72 197 -130
200 -130 4 0 21 -11 38 -24 32 -24 484 -296 492 -296 2 0 28 -14 57 -31 259
-153 863 -451 1203 -593 50 -21 104 -44 120 -51 67 -30 346 -139 435 -171 52
-19 104 -38 115 -43 11 -5 103 -37 205 -71 102 -34 192 -64 200 -67 8 -4 20
-7 25 -9 6 -1 48 -14 95 -29 169 -53 438 -131 520 -151 8 -2 87 -22 175 -44
208 -53 450 -106 700 -154 34 -7 437 -75 475 -81 114 -17 214 -30 300 -40 25
-3 79 -10 120 -15 42 -6 103 -13 135 -15 33 -3 80 -7 105 -10 63 -7 200 -18
375 -30 395 -28 1207 -28 1600 0 211 14 258 18 370 30 22 2 69 7 105 10 36 4
99 10 140 16 41 5 95 11 120 14 66 8 122 15 150 20 14 2 48 7 75 10 28 3 57 8
65 10 8 2 38 6 65 10 28 3 88 13 135 21 47 8 99 17 115 20 17 2 41 6 55 9 14
3 41 8 60 11 19 3 121 23 225 45 105 22 201 42 214 45 12 3 53 12 90 20 36 9
73 17 81 19 8 2 53 13 100 25 47 12 93 24 103 25 10 2 86 23 170 45 366 100
759 227 1087 350 91 34 183 69 205 76 22 8 49 19 60 24 11 5 45 19 75 30 30
12 69 27 85 35 17 7 77 33 135 58 1043 445 2044 1047 2930 1761 41 33 77 63
80 66 3 3 28 23 55 45 28 22 61 50 75 61 14 12 63 55 110 94 87 75 112 97 183
163 23 21 71 64 107 95 75 66 624 613 720 718 82 89 187 207 231 259 19 22 36
42 39 45 107 107 579 706 762 970 39 56 309 459 325 485 7 11 50 81 96 155
135 218 246 408 352 605 21 39 48 88 60 110 28 49 275 542 275 549 0 3 20 47
45 99 24 52 80 180 125 284 44 103 85 197 90 208 5 11 20 52 35 90 14 39 30
79 35 90 33 71 247 674 256 724 3 14 7 28 10 33 5 7 47 140 64 203 5 17 16 55
25 85 37 128 58 208 115 435 78 315 81 327 86 350 2 11 10 52 18 90 36 170 86
440 112 600 2 17 6 41 9 55 3 14 7 48 11 75 3 28 8 59 10 70 2 11 7 40 10 65
3 25 7 56 9 69 3 14 7 51 10 84 4 32 8 68 11 80 2 12 6 51 10 87 3 36 7 76 9
90 2 14 7 59 10 100 3 41 8 91 10 110 7 56 18 223 32 480 16 277 9 1112 -12
1370 -2 30 -7 89 -10 130 -3 41 -8 104 -10 140 -3 36 -7 83 -10 105 -2 22 -7
67 -10 100 -6 66 -11 108 -20 171 -3 23 -7 59 -10 80 -5 51 -15 123 -20 154
-2 14 -9 61 -15 105 -6 44 -13 92 -15 107 -2 15 -8 53 -14 85 -6 32 -13 78
-16 103 -4 24 -8 47 -10 50 -2 3 -6 26 -10 50 -3 25 -17 101 -31 170 -14 69
-27 134 -29 145 -11 74 -133 584 -180 750 -9 33 -18 67 -20 75 -56 242 -355
1110 -471 1368 -13 29 -24 55 -24 57 0 9 -168 391 -225 510 -117 245 -263 532
-355 695 -20 36 -39 72 -43 80 -4 8 -15 29 -25 45 -10 17 -30 50 -44 75 -14
25 -56 97 -94 160 -38 63 -72 122 -77 130 -4 8 -15 27 -25 42 -9 15 -35 55
-56 90 -227 364 -660 967 -882 1228 -12 14 -61 72 -109 130 -82 98 -144 170
-240 278 -22 25 -48 54 -57 65 -107 123 -517 540 -684 697 -123 116 -264 244
-314 285 -25 21 -47 40 -50 44 -3 4 -48 42 -100 86 -52 44 -97 82 -100 85 -4
5 -118 98 -180 147 -8 6 -51 41 -95 76 -69 55 -283 217 -356 269 -13 10 -62
46 -109 80 -47 34 -193 134 -325 223 -460 308 -901 564 -1405 814 -217 108
-270 133 -450 213 -36 16 -78 35 -95 43 -86 38 -357 150 -475 195 -74 29 -148
58 -165 65 -16 7 -48 18 -70 25 -22 7 -53 18 -70 26 -78 35 -655 220 -890 285
-110 30 -529 137 -561 143 -16 3 -112 23 -214 45 -102 22 -196 42 -210 44
-134 25 -260 47 -285 51 -16 3 -70 12 -120 20 -49 8 -110 18 -135 21 -25 3
-56 8 -70 10 -14 2 -44 7 -67 10 -24 3 -60 7 -80 10 -38 5 -87 11 -165 20 -24
3 -59 7 -78 10 -19 2 -64 7 -100 10 -36 3 -81 8 -100 10 -19 2 -73 7 -120 10
-47 3 -103 8 -125 10 -22 3 -94 7 -160 11 -66 3 -147 8 -180 10 -66 5 -873 13
-877 9z"/>
</g>
</svg>
